<svg width="25" height="25" viewBox="0 0 25 25" fill="none" xmlns="http://www.w3.org/2000/svg">
<path d="M0.366813 24.6332C0.610553 24.8774 0.930734 24.9995 1.25043 24.9995C1.57013 24.9995 1.89031 24.8774 2.13405 24.6332L12.5 14.2677L22.8659 24.6337C23.1097 24.8779 23.4299 25 23.7496 25C24.0693 25 24.3894 24.8779 24.6332 24.6337C25.1216 24.1457 25.1216 23.3539 24.6332 22.8659L14.2677 12.5L24.6337 2.13405C25.1221 1.64609 25.1221 0.854294 24.6337 0.366332C24.1462 -0.122111 23.3539 -0.122111 22.8659 0.366332L12.5 10.7323L2.13405 0.366813C1.64657 -0.12163 0.854294 -0.12163 0.366332 0.366813C-0.122111 0.854775 -0.122111 1.64657 0.366332 2.13453L10.7328 12.5L0.366813 22.8659C-0.12163 23.3539 -0.12163 24.1452 0.366813 24.6332Z" fill="#C7C7C7"/>
</svg>
